<svg fill="none" viewBox="0 0 16 16" xmlns="http://www.w3.org/2000/svg"><path fill="currentColor" d="m10.9998 1c-2.20917 0-4.00004 1.79086-4.00004 4 0 .31279.036.61771.10423.91061l-5.05084 5.23469c-.81239.8419-.72451 2.2002.18961 2.9304.79404.6344 1.93883.5668 2.65278-.1565l5.00648-5.07184c.34928.09948.71768.15264 1.09778.15264 2.2091 0 4-1.79086 4-4 0-.18121-.0121-.35986-.0356-.53513-.0252-.1885-.1552-.34637-.3354-.4073-.1801-.06094-.3792-.01439-.5137.12009l-2.1151 2.11518-2.2929-2.29278 2.1153-2.11535c.1344-.13448.181-.3336.1201-.51374-.061-.18015-.2188-.31014-.4073-.33539-.1754-.02348-.3541-.03558-.5354-.03558z" /></svg>