<?xml version="1.0" encoding="utf-8"?>
<svg xmlns="http://www.w3.org/2000/svg" viewBox="14.942 3.221 371.233 418.02" width="400px" height="400px">
  <g transform="matrix(0.814073, 0, 0, 0.814073, 8.664872, -32.58913)" style="">
    <title>Flag 2b</title>
    <path d="M 112.073 209.905 L 112.08 209.9 L 23.454 88.755 C 20.943 85.229 13.027 75.704 12.937 68.511 C 12.791 56.691 18.984 50.25 37.616 50.25 L 84.684 50.264 L 202.178 214.174 L 85.32 378.6 L 37.559 378.613 C 18.925 378.613 12.466 373.561 12.497 358.957 C 12.511 352.346 22.082 341.309 27.746 333.64 L 112.073 218.903 C 114.435 215.904 114.435 212.904 112.073 209.905 Z M 436.882 50.363 L 436.987 50.308 C 442.396 50.308 447.315 52.401 450.98 55.823 C 455.025 59.57 457.557 64.926 457.557 70.874 L 457.557 354.323 C 457.567 354.491 457.572 354.66 457.572 354.83 L 457.572 557.758 L 360.862 557.842 L 360.862 378.559 L 247.583 378.559 L 160.894 378.581 L 272.17 222.009 C 273.039 220.788 273.677 219.469 274.095 218.111 C 275.394 214.133 274.846 209.606 272.219 205.94 L 160.64 50.286 L 436.882 50.363 Z" style="fill: currentcolor;"/>
  </g>
</svg>