<?xml version="1.0" encoding="utf-8"?>
<svg xmlns="http://www.w3.org/2000/svg" width="48" height="48" viewBox="0 0 48 48">
  <g fill="none" stroke="currentColor" stroke-linecap="round" stroke-linejoin="round" stroke-width="4" transform="matrix(0.903559, 0, 0, 0.903559, 2.411163, 6.188228)" style="">
    <path d="M 20.005 8.014 C 20.005 10.626 18.333 12.848 16 13.667 L 16 26.653 C 16.114 26.572 16.229 26.494 16.346 26.418 C 18.566 24.972 21.493 23.774 24.243 22.649 C 26.993 21.524 29.566 20.472 31.471 19.231 C 33.308 18.033 34.01 17.354 34 16 L 34 13.641 C 31.669 12.821 29.998 10.6 29.998 7.989 C 29.998 4.681 32.68 1.999 35.988 1.999 C 39.296 1.999 41.978 4.681 41.978 7.989 C 41.978 10.591 40.318 12.806 38 13.633 L 38 16 C 38 19.998 35.941 21.092 33.654 22.582 C 31.434 24.028 28.507 25.226 25.757 26.351 C 23.007 27.476 20.434 28.528 18.529 29.769 C 16.692 30.967 15.981 31.817 16 33 L 15.959 35.957 L 12.002 35.956 L 12 33 L 12 13.657 C 9.683 12.829 8.025 10.615 8.025 8.014 C 8.025 4.706 10.707 2.024 14.015 2.024 C 17.323 2.024 20.005 4.706 20.005 8.014 Z M 20.018 40.002 C 20.018 43.31 17.336 45.992 14.028 45.992 C 10.72 45.992 8.038 43.31 8.038 40.002 C 8.038 36.694 10.72 34.012 14.028 34.012 C 17.336 34.012 20.018 36.694 20.018 40.002 Z" style="stroke: none; fill: currentcolor;"/>
  </g>
</svg>