<?xml version="1.0" encoding="utf-8"?>
<svg xmlns="http://www.w3.org/2000/svg" viewBox="14.9 3.2 371.2 418" width="400px" height="400px">
  <defs>
    <clipPath id="clip-0">
      <path d="M -16.939 -3.43 L 659.648 -3.43 L 659.648 506.512 L -16.939 506.512 L -16.993 275.723 L 139.592 275.688 L 230.231 148.142 C 230.939 147.148 231.458 146.075 231.798 144.969 C 232.856 141.731 232.41 138.045 230.271 135.061 L 139.467 8.342 L -16.913 8.255 L -16.939 -3.43 Z M 157.286 8.352 L 241.673 8.376 L 241.673 8.352 L 157.286 8.352 Z M 241.673 275.586 L 210.215 275.586 L 147.946 275.601 L 241.673 275.601 L 241.673 275.586 Z" style="">
        <animateTransform type="translate" additive="sum" attributeName="transform" values="-238 0;-238 0;0 0" dur="0.3s" fill="freeze" keyTimes="0; 0.5; 1" calcMode="spline" keySplines="0 0 1 1; 0.5 1 0.89 1"/>
      </path>
    </clipPath>
  </defs>
  <path d="M 210.233 275.631 L 39.258 275.675 C 24.089 275.675 18.831 271.562 18.856 259.673 C 18.867 254.292 19.288 29.085 19.214 23.229 C 19.095 13.607 24.137 8.363 39.305 8.363 L 364.336 8.455 L 364.422 8.411 C 368.825 8.411 372.83 10.114 375.813 12.9 C 379.106 15.95 381.167 20.311 381.167 25.153 L 381.167 255.901 C 381.176 256.038 381.18 256.175 381.18 256.314 L 381.18 421.512 L 302.451 421.58 L 302.451 275.631 L 210.233 275.631 Z" style="fill: currentcolor; clip-path: url(&quot;#clip-0&quot;);">
  </path>
  <path d="M 99.915 138.357 L 99.92 138.353 L 27.774 39.732 C 25.724 36.862 19.284 29.108 19.214 23.252 C 19.094 13.63 24.134 8.386 39.296 8.386 L 77.618 8.398 L 173.267 141.832 L 78.136 275.687 L 39.256 275.698 C 24.084 275.698 18.824 271.585 18.854 259.696 C 18.864 254.315 26.654 245.33 31.264 239.086 L 99.915 145.682 C 101.837 143.241 101.837 140.799 99.915 138.357 Z" style="fill: currentcolor; stroke-width: 0.814;">
    <animateTransform type="translate" additive="sum" attributeName="transform" values="-318 0;-318 0;0 0" dur="0.3s" fill="freeze" keyTimes="0; 0.49466; 1" calcMode="spline" keySplines="0.5 1 0.89 1; 0.5 1 0.89 1"/>
  </path>
</svg>
