<?xml version="1.0" encoding="utf-8"?>
<svg xmlns="http://www.w3.org/2000/svg" viewBox="0 0 400 400" width="400px" height="400px">
  <g transform="matrix(0.732564, 0, 0, 0.732564, 27.822222, -9.825517)" style="">
    <title>Flag 2b</title>
    <path d="M 360.862 378.559 L 37.559 378.613 C 18.925 378.613 12.466 373.561 12.497 358.957 C 12.511 352.346 22.082 341.309 27.746 333.64 L 112.073 218.903 C 114.435 215.904 114.435 212.904 112.073 209.905 L 112.08 209.9 L 23.454 88.755 C 20.943 85.229 13.027 75.704 12.937 68.511 C 12.791 56.691 18.984 50.25 37.616 50.25 L 436.882 50.363 L 436.987 50.308 C 442.396 50.308 447.315 52.401 450.98 55.823 C 455.025 59.57 457.557 64.926 457.557 70.874 L 457.557 354.323 C 457.567 354.491 457.572 354.66 457.572 354.83 L 457.572 513.565 C 457.572 518.097 453.898 521.805 449.368 521.847 L 369.067 522.602 C 364.536 522.644 360.862 519.006 360.862 514.474 L 360.862 378.559 Z" style="fill: currentcolor;"/>
  </g>
</svg>