<?xml version="1.0" encoding="utf-8"?>
<svg xmlns="http://www.w3.org/2000/svg" width="14" height="14" viewBox="0 0 14 14">
  <path fill="currentColor" fill-rule="evenodd" d="M 6.98 12.752 C 6.989 12.752 6.997 12.749 7.003 12.742 L 7.028 12.715 L 8.817 10.936 C 9.158 10.597 9.739 10.754 9.862 11.219 C 9.873 11.261 9.88 11.304 9.882 11.348 C 9.899 11.682 10.042 11.998 10.281 12.232 L 9.844 12.679 L 10.286 12.237 C 11.026 12.998 12.312 12.673 12.602 11.652 C 12.74 11.164 12.599 10.64 12.236 10.287 L 12.231 10.282 C 11.997 10.042 11.682 9.899 11.347 9.882 C 10.867 9.857 10.593 9.322 10.855 8.918 C 10.879 8.88 10.908 8.845 10.94 8.813 L 12.719 7.063 L 12.741 7.043 C 12.747 7.037 12.751 7.029 12.751 7.021 C 12.751 7.012 12.748 7.004 12.741 6.998 L 12.715 6.974 L 11.735 5.994 L 11.709 6.02 L 11.704 6.024 C 10.299 7.496 7.828 6.895 7.256 4.943 C 6.979 4.001 7.248 2.983 7.954 2.3 L 7.961 2.292 L 7.999 2.256 L 7.058 1.277 L 7.042 1.26 C 7.03 1.246 7.009 1.246 6.997 1.26 L 6.972 1.287 L 5.183 3.066 C 4.841 3.405 4.261 3.247 4.139 2.782 C 4.128 2.742 4.121 2.701 4.119 2.66 C 4.054 1.601 2.867 1.01 1.983 1.596 C 1.098 2.182 1.18 3.505 2.129 3.978 C 2.294 4.06 2.475 4.109 2.659 4.12 C 3.139 4.15 3.407 4.688 3.141 5.089 C 3.117 5.125 3.09 5.159 3.059 5.189 L 1.281 6.939 L 1.259 6.959 C 1.245 6.971 1.245 6.992 1.259 7.004 L 1.282 7.025 L 2.282 8.012 L 2.338 7.956 C 3.846 6.595 6.261 7.377 6.685 9.363 C 6.865 10.204 6.624 11.08 6.038 11.71 L 6.001 11.746 L 6.942 12.725 L 6.958 12.742 C 6.964 12.748 6.972 12.752 6.98 12.752 M 9.405 13.124 C 9.231 12.954 9.083 12.76 8.965 12.552 L 7.92 13.59 C 7.411 14.142 6.539 14.139 6.033 13.584 L 4.593 12.086 C 4.299 11.78 4.39 11.276 4.772 11.091 C 4.912 11.022 5.039 10.935 5.152 10.828 C 5.865 10.032 5.45 8.763 4.404 8.543 C 3.971 8.452 3.521 8.573 3.192 8.868 C 3.085 8.98 2.997 9.109 2.929 9.248 C 2.742 9.634 2.232 9.721 1.927 9.42 L 0.413 7.924 C -0.14 7.417 -0.14 6.545 0.413 6.038 L 1.442 5.028 C -0.065 4.169 -0.342 2.112 0.884 0.885 C 2.115 -0.343 4.177 -0.061 5.032 1.453 L 6.08 0.411 C 6.589 -0.141 7.461 -0.138 7.967 0.417 L 9.407 1.915 C 9.701 2.221 9.61 2.725 9.228 2.91 C 9.084 2.98 8.953 3.072 8.838 3.183 C 8.085 3.947 8.442 5.239 9.479 5.509 C 10.129 5.678 10.806 5.36 11.091 4.753 C 11.278 4.366 11.791 4.279 12.095 4.583 L 13.59 6.078 C 14.141 6.586 14.14 7.457 13.587 7.963 L 12.561 8.971 C 12.767 9.089 12.956 9.235 13.123 9.405 C 14.523 10.867 13.816 13.297 11.849 13.779 C 10.976 13.992 10.054 13.745 9.405 13.124" clip-rule="evenodd" style="transform-box: fill-box; transform-origin: 50% 50%;" transform="matrix(-1, 0, 0, -1, 0.000002, 0.000001)"/>
</svg>