<?xml version="1.0" encoding="utf-8"?>
<svg xmlns="http://www.w3.org/2000/svg" width="24" height="24" viewBox="0 0 24 24">
  <path fill="currentColor" d="M 7 6 C 7 2.921 10.333 0.996 13 2.536 C 14.238 3.25 15 4.571 15 6 L 20 6 C 20.552 6 21 6.448 21 7 L 21 11.17 C 21.001 11.86 20.318 12.344 19.667 12.114 C 18.215 11.603 16.754 12.855 17.037 14.369 C 17.263 15.574 18.51 16.294 19.667 15.887 C 20.317 15.657 20.999 16.139 21 16.829 L 21 21 C 21 21.552 20.552 22 20 22 L 4 22 C 3.448 22 3 21.552 3 21 L 3 7 C 3 6.448 3.448 6 4 6 L 7 6 Z M 11 4 C 9.619 4 8.654 5.365 9.114 6.667 C 9.344 7.318 8.86 8.001 8.17 8 L 5 8 L 5 20 L 19 20 L 19 18 C 15.921 18 13.996 14.667 15.536 12 C 16.25 10.762 17.571 10 19 10 L 19 8 L 13.83 8 C 13.14 8.001 12.656 7.318 12.886 6.667 C 12.962 6.459 13 6.237 13 6 C 13 4.895 12.105 4 11 4"/>
</svg>