<?xml version="1.0" encoding="utf-8"?>
<svg xmlns="http://www.w3.org/2000/svg" width="384" height="512" viewBox="0 65.8 384 384">
  <path fill="currentColor" d="M 342.6 152.4 C 355.1 139.9 355.1 119.6 342.6 107.1 C 330.1 94.6 309.8 94.6 297.3 107.1 L 192 212.5 L 86.6 107.2 C 74.1 94.7 53.8 94.7 41.3 107.2 C 28.8 119.7 28.8 140 41.3 152.5 L 146.7 257.8 L 41.4 363.2 C 28.9 375.7 28.9 396 41.4 408.5 C 53.9 421 74.2 421 86.7 408.5 L 192 303.1 L 297.4 408.4 C 309.9 420.9 330.2 420.9 342.7 408.4 C 355.2 395.9 355.2 375.6 342.7 363.1 L 237.3 257.8 L 342.6 152.4 Z"/>
</svg>