<?xml version="1.0" encoding="utf-8"?>
<svg xmlns="http://www.w3.org/2000/svg" viewBox="0 0 400 400" width="18px" height="18px">
  <path d="M 113.059 135.894 L 113.064 135.89 L 50.399 50.234 C 48.624 47.741 43.026 41.006 42.963 35.92 C 42.86 27.563 47.239 23.008 60.413 23.008 L 93.693 23.018 L 176.769 138.913 L 94.142 255.173 L 60.372 255.182 C 47.196 255.182 42.63 251.609 42.652 241.283 C 42.661 236.61 49.429 228.805 53.433 223.383 L 113.059 142.257 C 114.728 140.136 114.728 138.016 113.059 135.894 Z M 342.72 23.088 L 342.793 23.049 C 346.618 23.049 350.096 24.529 352.687 26.949 C 355.548 29.597 357.338 33.384 357.338 37.59 L 357.338 238.007 C 357.345 238.126 357.348 238.246 357.348 238.366 L 357.348 370.601 C 357.348 373.805 354.751 376.428 351.547 376.457 L 294.77 376.991 C 291.566 377.02 288.968 374.448 288.968 371.243 L 288.968 255.144 L 208.873 255.144 L 147.578 255.158 L 226.258 144.453 C 226.873 143.59 227.323 142.658 227.619 141.696 C 228.537 138.883 228.149 135.683 226.292 133.09 L 147.399 23.032 L 342.72 23.088 Z" style="fill: currentcolor;"/>
</svg>